<svg xmlns="http://www.w3.org/2000/svg" width="112" height="112" viewBox="0 0 112 112"><defs><style>.a{fill:none;stroke:#00a1ed;stroke-linecap:round;stroke-linejoin:round;stroke-width:2px;}</style></defs><g transform="translate(-4145.909 -1980.91)"><path class="a" d="M5269.672,4887.566a7.781,7.781,0,0,0-7.758-7.761h-11.447a7.782,7.782,0,0,0-7.761,7.761v4.576a7.781,7.781,0,0,0,7.761,7.758h11.447a7.782,7.782,0,0,1,7.758,7.761v4.575a7.781,7.781,0,0,1-7.758,7.761h-11.447a7.782,7.782,0,0,1-7.761-7.761" transform="translate(-1054.28 -2862.99)"/><line class="a" y1="7.905" transform="translate(4201.909 2005.145)"/><line class="a" y1="7.905" transform="translate(4201.909 2060.77)"/><ellipse class="a" cx="45.8" cy="45.8" rx="45.8" ry="45.8" transform="translate(4156.109 1991.109)"/><ellipse class="a" cx="55" cy="55" rx="55" ry="55" transform="translate(4146.909 1981.91)"/></g></svg>