<svg xmlns="http://www.w3.org/2000/svg" width="112" height="112" viewBox="0 0 112 112"><defs><style>.a{fill:none;stroke:#00a1ed;stroke-linecap:round;stroke-linejoin:round;stroke-width:2px;}</style></defs><g transform="translate(-206.909 -2585.91)"><ellipse class="a" cx="55" cy="55" rx="55" ry="55" transform="translate(207.909 2586.91)"/><g transform="translate(222.828 2601.882)"><path class="a" d="M6884.96,1407.37c.5-.06,1-.13,1.5-.215a31.331,31.331,0,0,0,7.787-2.4l7.327,5.661a40.314,40.314,0,0,0,5.319-4.111l-3.109-8.328a31.531,31.531,0,0,0,5.757-8.379l8.451-.353a40.242,40.242,0,0,0,1.609-6.683l-7.146-4.049a31.542,31.542,0,0,0-1.044-10.667l6.088-5.571a40.029,40.029,0,0,0-2.856-6.067l-8.111,1.51a31.423,31.423,0,0,0-7.942-7.623l1.162-8.708a40.257,40.257,0,0,0-5.692-2.687l-5.7,6.938a31.049,31.049,0,0,0-10.923-.582l-5.215-8.242a40.374,40.374,0,0,0-5.641,1.507l.093,10.1a31.218,31.218,0,0,0-8.36,6.417l-10.23-3.256a40.758,40.758,0,0,0-3.1,4.6l7.17,8.41a31.264,31.264,0,0,0-2.161,9.765l-10.389,4.289a40.563,40.563,0,0,0,.5,4.539c.057.333.128.659.192.988l11.217,1.878a31.2,31.2,0,0,0,4.332,8.51l-5.121,9.813a40.547,40.547,0,0,0,4.36,3.937l9.435-5.577a31.348,31.348,0,0,0,8.6,3.781l2.2,10.05a40.008,40.008,0,0,0,6.327.2Z" transform="translate(-6839.598 -1336.817)"/><circle class="a" cx="19.752" cy="19.752" r="19.752" transform="translate(13.793 44.006) rotate(-54.606)"/></g></g></svg>