<svg xmlns="http://www.w3.org/2000/svg" width="348.617" height="276.578" viewBox="0 0 348.617 276.578"><defs><style>.a{fill:#e50019;}.b{fill:#818386;}.c{fill:#00a1ed;}.d{fill:#1a1818;}</style></defs><g transform="translate(-600 -338)"><g transform="translate(600 338)"><g transform="translate(0.049 165.406)"><path class="a" d="M91.14-69q16.535,0,26.361,4.88,9.1,4.652,9.107,11.888v10.206q0,6.953-10.364,11.888T91.14-25.2H78.079V1.266H55.434V-69Zm13.54,16.935q0-2.748-3.534-4.43a22.117,22.117,0,0,0-9.406-1.682H78.079v22.487H91.74a21.2,21.2,0,0,0,9.167-1.8q3.775-1.793,3.773-4.319Z" transform="translate(-55.434 69.051)"/><path class="a" d="M91.581,1.3V-69.019h64.465v10.6H114.228v19.235h30.554v10.656H114.228V-9.3h41.818V1.3Z" transform="translate(-2.318 69.019)"/><path class="a" d="M153.111-14.884,147.6,1.266H123.994L149.516-69H180.67L205.834,1.266H182.107l-5.391-16.15ZM164.974-52.9l-8.389,27.7h16.775Z" transform="translate(45.311 69.051)"/><path class="a" d="M187.017-20.907V1.3H164.249V-69.019h22.768v25.065l27.559-25.065h24.2L207.746-40.252,244.052,1.3h-26.6L193.727-27.189Z" transform="translate(104.464 69.019)"/></g><g transform="translate(0.049 246.409)"><path class="a" d="M55.434-6.572V-36.1H58.36V-23.35h5.4V-36.1h2.926v29.53H63.761V-20.411h-5.4V-6.572Z" transform="translate(-55.434 36.386)"/><path class="a" d="M61.326-6.572V-36.1h8.137v3.047H64.252V-23.3h4.233v2.941H64.252V-9.531h5.272v2.958Z" transform="translate(-46.776 36.386)"/><path class="a" d="M65.134-6.572,69.621-36.1h2.825l4.487,29.53H74.145l-.963-7.445H68.91l-1,7.445ZM69.29-16.956H72.8L71.041-30.3Z" transform="translate(-41.18 36.386)"/><path class="a" d="M73.593-6.572V-33.055h-3.84V-36.1h10.47v3.047h-3.7V-6.572Z" transform="translate(-34.393 36.386)"/><path class="a" d="M74.7-6.572V-36.1h2.877v29.53Z" transform="translate(-27.122 36.386)"/><path class="a" d="M77.246-6.572V-36.1h1.99l5.969,19.607V-36.1h2.447v29.53H85.775l-6.058-20.18v20.18Z" transform="translate(-23.382 36.386)"/><path class="a" d="M88.036-6.048A4.3,4.3,0,0,1,83.9-8.586a17.374,17.374,0,0,1-1.267-7.507v-9.883a34.982,34.982,0,0,1,.158-3.563,15.671,15.671,0,0,1,.546-2.83,6.455,6.455,0,0,1,1.02-2.121,4.28,4.28,0,0,1,1.61-1.272,5.371,5.371,0,0,1,2.294-.454,4.542,4.542,0,0,1,4.2,2.084q1.278,2.082,1.279,6.554v1.087H90.987v-.926c0-.832-.017-1.516-.049-2.057a10.309,10.309,0,0,0-.21-1.541,2.93,2.93,0,0,0-.457-1.131,2.025,2.025,0,0,0-.778-.632,2.724,2.724,0,0,0-1.193-.232,2.539,2.539,0,0,0-.963.17,2.218,2.218,0,0,0-.709.445,2.11,2.11,0,0,0-.489.766,6.752,6.752,0,0,0-.309.961,8.262,8.262,0,0,0-.178,1.213c-.044.491-.069.941-.077,1.343s-.012.909-.012,1.514v10.937a14.52,14.52,0,0,0,.583,4.88,2.191,2.191,0,0,0,2.23,1.477,2.246,2.246,0,0,0,2.257-1.6,15.764,15.764,0,0,0,.607-5.146v-2.067H88.579v-2.921H93.9V-6.4H92.041l-.279-3.4Q90.81-6.047,88.036-6.048Z" transform="translate(-15.464 36.217)"/><path class="b" d="M90.912-36.112,90.885-6.563h2.581l.015-29.549Z" transform="translate(-3.341 36.371)"/><path class="c" d="M101.219-6.085a5.053,5.053,0,0,1-2.294-.5A4.476,4.476,0,0,1,97.31-7.934a7.225,7.225,0,0,1-1.027-2.131,13.852,13.852,0,0,1-.551-2.679,29.553,29.553,0,0,1-.153-3.151V-26.334a31.034,31.034,0,0,1,.158-3.329,14.517,14.517,0,0,1,.553-2.726,6.6,6.6,0,0,1,1.025-2.084,4.364,4.364,0,0,1,1.617-1.282,5.31,5.31,0,0,1,2.287-.462,4.313,4.313,0,0,1,4.07,2.156,13.041,13.041,0,0,1,1.227,6.339v2.351h-2.773v-2.084q0-.678-.007-1.059c0-.254-.012-.573-.025-.953a7.306,7.306,0,0,0-.072-.889c-.032-.215-.077-.464-.131-.748a2.554,2.554,0,0,0-.21-.669,5.323,5.323,0,0,0-.316-.516,1.325,1.325,0,0,0-.432-.41,2.545,2.545,0,0,0-.57-.222,2.821,2.821,0,0,0-.736-.089,2.777,2.777,0,0,0-1.064.188,1.713,1.713,0,0,0-.748.588,3.871,3.871,0,0,0-.474.882,5.218,5.218,0,0,0-.272,1.237c-.059.5-.1.993-.121,1.459s-.032,1.05-.032,1.736v11.683a12.386,12.386,0,0,0,.6,4.633,2.136,2.136,0,0,0,2.116,1.3,2.588,2.588,0,0,0,1.008-.178,1.543,1.543,0,0,0,.7-.588,4.3,4.3,0,0,0,.437-.854,5.029,5.029,0,0,0,.24-1.2q.078-.756.1-1.4t.02-1.674v-2.173h2.773v2.19a27.03,27.03,0,0,1-.151,3.028,13.413,13.413,0,0,1-.519,2.5,6.144,6.144,0,0,1-.966,1.931,4.109,4.109,0,0,1-1.519,1.2A4.967,4.967,0,0,1,101.219-6.085Z" transform="translate(3.557 36.217)"/><path class="c" d="M106.73-6.085a5.248,5.248,0,0,1-2.694-.657,4.645,4.645,0,0,1-1.78-1.941,10.574,10.574,0,0,1-.963-2.993,23.062,23.062,0,0,1-.3-3.988V-26.85a14.553,14.553,0,0,1,1.336-6.989,4.659,4.659,0,0,1,4.406-2.378,4.653,4.653,0,0,1,4.4,2.4,14.538,14.538,0,0,1,1.343,6.971v11.2a15.037,15.037,0,0,1-1.351,7.087A4.623,4.623,0,0,1,106.73-6.085ZM105.3-9.68a2.535,2.535,0,0,0,1.427.373,2.527,2.527,0,0,0,1.425-.373,2.3,2.3,0,0,0,.857-1.141,7.076,7.076,0,0,0,.4-1.682,20.041,20.041,0,0,0,.109-2.272V-27.7a19.033,19.033,0,0,0-.109-2.225,6.784,6.784,0,0,0-.4-1.64,2.142,2.142,0,0,0-.857-1.094,2.672,2.672,0,0,0-1.425-.348,2.681,2.681,0,0,0-1.427.348,2.139,2.139,0,0,0-.854,1.094,6.672,6.672,0,0,0-.4,1.64,19.111,19.111,0,0,0-.106,2.225v12.93a20.119,20.119,0,0,0,.106,2.272,6.959,6.959,0,0,0,.4,1.682A2.3,2.3,0,0,0,105.3-9.68Z" transform="translate(11.507 36.217)"/><path class="c" d="M112.4-6.085a5.254,5.254,0,0,1-2.694-.657,4.661,4.661,0,0,1-1.78-1.941,10.574,10.574,0,0,1-.963-2.993,23.063,23.063,0,0,1-.3-3.988V-26.85a14.553,14.553,0,0,1,1.336-6.989,4.659,4.659,0,0,1,4.405-2.378,4.653,4.653,0,0,1,4.4,2.4,14.508,14.508,0,0,1,1.343,6.971v11.2a15.036,15.036,0,0,1-1.351,7.087A4.623,4.623,0,0,1,112.4-6.085Zm-1.427-3.6a2.535,2.535,0,0,0,1.427.373,2.521,2.521,0,0,0,1.425-.373,2.3,2.3,0,0,0,.857-1.141,7.077,7.077,0,0,0,.4-1.682,19.482,19.482,0,0,0,.109-2.272V-27.7a18.507,18.507,0,0,0-.109-2.225,6.785,6.785,0,0,0-.4-1.64,2.142,2.142,0,0,0-.857-1.094,2.666,2.666,0,0,0-1.425-.348,2.681,2.681,0,0,0-1.427.348,2.139,2.139,0,0,0-.854,1.094,6.784,6.784,0,0,0-.4,1.64,19.1,19.1,0,0,0-.106,2.225v12.93a20.112,20.112,0,0,0,.106,2.272,7.076,7.076,0,0,0,.4,1.682A2.3,2.3,0,0,0,110.969-9.68Z" transform="translate(19.833 36.217)"/><path class="c" d="M112.48-6.572V-36.1h2.929V-9.531h5.361v2.958Z" transform="translate(28.392 36.386)"/><path class="c" d="M116.709-6.572V-36.1h2.877v29.53Z" transform="translate(34.606 36.386)"/><path class="c" d="M119.255-6.572V-36.1h1.99l5.969,19.607V-36.1h2.447v29.53h-1.877l-6.058-20.18v20.18Z" transform="translate(38.348 36.386)"/><path class="c" d="M130.042-6.048a4.3,4.3,0,0,1-4.131-2.539,17.374,17.374,0,0,1-1.267-7.507v-9.883a34.977,34.977,0,0,1,.158-3.563,15.456,15.456,0,0,1,.546-2.83,6.455,6.455,0,0,1,1.02-2.121,4.261,4.261,0,0,1,1.61-1.272,5.371,5.371,0,0,1,2.294-.454,4.542,4.542,0,0,1,4.2,2.084q1.278,2.082,1.279,6.554v1.087H133v-.926c0-.832-.017-1.516-.049-2.057a10.306,10.306,0,0,0-.21-1.541,2.93,2.93,0,0,0-.457-1.131,2.025,2.025,0,0,0-.778-.632,2.724,2.724,0,0,0-1.193-.232,2.539,2.539,0,0,0-.963.17,2.165,2.165,0,0,0-.709.445,2.11,2.11,0,0,0-.489.766,7.105,7.105,0,0,0-.311.961,8.994,8.994,0,0,0-.178,1.213c-.042.491-.067.941-.074,1.343s-.012.909-.012,1.514v10.937a14.519,14.519,0,0,0,.583,4.88,2.191,2.191,0,0,0,2.23,1.477,2.241,2.241,0,0,0,2.255-1.6,15.681,15.681,0,0,0,.61-5.146v-2.067h-2.662v-2.921h5.324V-6.4h-1.864l-.279-3.4Q132.82-6.047,130.042-6.048Z" transform="translate(46.266 36.217)"/><path class="b" d="M132.919-36.112l-.027,29.549h2.581l.015-29.549Z" transform="translate(58.386 36.371)"/><path class="d" d="M137.747-6.572V-36.1h4.22a5.68,5.68,0,0,1,4.682,1.835q1.489,1.834,1.489,5.983,0,5.7-2.6,6.892l3.005,14.819h-2.84l-2.763-13.856h-2.269V-6.572Zm2.926-16.812h1.1a3.234,3.234,0,0,0,2.731-1.062,6.553,6.553,0,0,0,.817-3.838,7.355,7.355,0,0,0-.7-3.776,2.928,2.928,0,0,0-2.655-1.087h-1.294Z" transform="translate(65.521 36.386)"/><path class="d" d="M143.2-6.572V-36.1h8.137v3.047h-5.211V-23.3h4.235v2.941h-4.235V-9.531H151.4v2.958Z" transform="translate(73.538 36.386)"/><path class="d" d="M147.483-6.572V-36.1H155.6v2.956h-5.183v9.814h4.018v2.939h-4.018V-6.572Z" transform="translate(79.827 36.386)"/><path class="d" d="M151.589-6.572V-36.1h4.22a5.68,5.68,0,0,1,4.682,1.835q1.489,1.834,1.492,5.983,0,5.7-2.6,6.892l3.005,14.819h-2.84l-2.763-13.856h-2.267V-6.572Zm2.929-16.812h1.1a3.234,3.234,0,0,0,2.731-1.062,6.552,6.552,0,0,0,.817-3.838,7.355,7.355,0,0,0-.7-3.776,2.928,2.928,0,0,0-2.655-1.087h-1.292Z" transform="translate(85.861 36.386)"/><path class="d" d="M157.1-6.572V-36.1h2.877v29.53Z" transform="translate(93.96 36.386)"/><path class="d" d="M164.888-6.048a4.3,4.3,0,0,1-4.131-2.539,17.368,17.368,0,0,1-1.269-7.507v-9.883a34.923,34.923,0,0,1,.161-3.563,15.675,15.675,0,0,1,.543-2.83,6.456,6.456,0,0,1,1.022-2.121,4.261,4.261,0,0,1,1.61-1.272,5.36,5.36,0,0,1,2.292-.454,4.542,4.542,0,0,1,4.2,2.084q1.282,2.082,1.282,6.554v1.087h-2.751v-.926c0-.832-.017-1.516-.052-2.057a10.307,10.307,0,0,0-.207-1.541,2.969,2.969,0,0,0-.457-1.131,2.052,2.052,0,0,0-.78-.632,2.72,2.72,0,0,0-1.19-.232,2.539,2.539,0,0,0-.963.17,2.2,2.2,0,0,0-.711.445,2.14,2.14,0,0,0-.486.766,7.1,7.1,0,0,0-.311.961,8.258,8.258,0,0,0-.178,1.213c-.042.491-.067.941-.077,1.343s-.012.909-.012,1.514v10.937a14.585,14.585,0,0,0,.583,4.88,2.2,2.2,0,0,0,2.23,1.477,2.244,2.244,0,0,0,2.257-1.6,15.763,15.763,0,0,0,.607-5.146v-2.067h-2.66v-2.921h5.322V-6.4h-1.862l-.279-3.4Q167.662-6.047,164.888-6.048Z" transform="translate(97.466 36.217)"/><path class="d" d="M165.272-6.572V-36.1h8.137v3.047H168.2V-23.3h4.235v2.941H168.2V-9.531h5.275v2.958Z" transform="translate(105.967 36.386)"/><path class="d" d="M169.552-6.572V-36.1h4.22a5.682,5.682,0,0,1,4.685,1.835q1.489,1.834,1.489,5.983,0,5.7-2.6,6.892l3,14.819h-2.84l-2.763-13.856h-2.267V-6.572Zm2.929-16.812h1.1a3.231,3.231,0,0,0,2.731-1.062,6.552,6.552,0,0,0,.817-3.838,7.386,7.386,0,0,0-.7-3.776,2.933,2.933,0,0,0-2.657-1.087h-1.292Z" transform="translate(112.256 36.386)"/><path class="d" d="M174.536-6.572l4.487-29.53h2.825l4.487,29.53h-2.788l-.963-7.445h-4.272l-1,7.445Zm4.156-10.384H182.2L180.443-30.3Z" transform="translate(119.58 36.386)"/><path class="d" d="M182.995-6.572V-33.055h-3.84V-36.1h10.468v3.047h-3.7V-6.572Z" transform="translate(126.368 36.386)"/><path class="d" d="M184.1-6.572V-36.1h2.877v29.53Z" transform="translate(133.638 36.386)"/><path class="d" d="M192.23-6.085a5.238,5.238,0,0,1-2.692-.657,4.65,4.65,0,0,1-1.783-1.941,10.653,10.653,0,0,1-.963-2.993,23.063,23.063,0,0,1-.3-3.988V-26.85a14.55,14.55,0,0,1,1.338-6.989,4.655,4.655,0,0,1,4.4-2.378,4.651,4.651,0,0,1,4.4,2.4,14.508,14.508,0,0,1,1.343,6.971v11.2a15.07,15.07,0,0,1-1.348,7.087A4.629,4.629,0,0,1,192.23-6.085Zm-1.425-3.6a2.527,2.527,0,0,0,1.425.373,2.535,2.535,0,0,0,1.427-.373,2.3,2.3,0,0,0,.854-1.141,6.959,6.959,0,0,0,.4-1.682,20.118,20.118,0,0,0,.106-2.272V-27.7a19.109,19.109,0,0,0-.106-2.225,6.672,6.672,0,0,0-.4-1.64,2.139,2.139,0,0,0-.854-1.094,2.681,2.681,0,0,0-1.427-.348,2.672,2.672,0,0,0-1.425.348,2.114,2.114,0,0,0-.854,1.094,6.67,6.67,0,0,0-.4,1.64,19.032,19.032,0,0,0-.109,2.225v12.93a20.039,20.039,0,0,0,.109,2.272,6.958,6.958,0,0,0,.4,1.682A2.271,2.271,0,0,0,190.806-9.68Z" transform="translate(137.144 36.217)"/><path class="d" d="M192.315-6.572V-36.1H194.3l5.971,19.607V-36.1h2.445v29.53h-1.874l-6.06-20.18v20.18Z" transform="translate(145.705 36.386)"/></g><g transform="translate(0 0)"><path class="c" d="M134.206-80.674c-.141.064-.24.1-.328.146q-6.46,3.4-12.915,6.786a.354.354,0,0,0-.2.378q0,5.945,0,11.885v.326h-.007v.548h2.1c.081-.042.163-.089.244-.128q5.423-2.874,10.851-5.734a.429.429,0,0,0,.274-.437q-.007-6.719,0-13.449Z" transform="translate(40.586 217.299)"/><path class="c" d="M142.8-62.14h0c0-.353,0-.7,0-1.059q0-5.078.007-10.162a.453.453,0,0,0-.286-.454q-6.419-3.367-12.829-6.744a2.592,2.592,0,0,0-.277-.128c0,.121-.015.2-.015.284q0,6.786-.007,13.567a.422.422,0,0,0,.272.42q5.534,2.908,11.061,5.833H142.8Z" transform="translate(53.285 217.278)"/><path class="c" d="M401.186-20.509,356.316-69.73,322.07-41.892,228.317-136,158.145-56.926,127.27-87.552,61.721-20.509,58.39-17.1a10.464,10.464,0,0,0-2.976,7.3V14.71a6,6,0,0,0,6.025,5.983h40.916c-8.055-7.3-10.051-17.945-.788-25.3,2.818-2.227,6.011-4.294,7.947-7.117a11.774,11.774,0,0,0,2.188-6.332c.03-.763-.422-1.874.985-2.109,1.163-.19,1.914.711,2.571,1.346,3.936,3.813,4.647,8.184,3.561,12.774a19.986,19.986,0,0,1-4.512,8.947c-5.206,5.855-6.154,11.769-3.331,17.787h6.91a9.784,9.784,0,0,1,3.245-9.063c3.44-2.711,7.065-5.3,10.646-7.917,3.255-2.373,6.267-4.87,7.786-8.181.235-.506.444-1.166,1.284-1.193,1.074-.042,1.321.709,1.568,1.309a18.3,18.3,0,0,1,1.59,8.952c.563,6.337-2.119,11.35-9.665,14.876-.832.383-1.655.793-2.452,1.217h76.938v-.81c0-2.166,0-4.324,0-6.49,0-.407.017-.82.017-1.227a2.652,2.652,0,0,0-.03-.321c-3.032,1.6-6.03,3.183-9.06,4.778-1.319-2.089-2.627-4.156-3.954-6.245v0c3.028-1.59,6.038-3.178,9.112-4.8-2.669-1.4-5.292-2.776-7.939-4.168,1.314-2.089,2.618-4.161,3.931-6.245.106.052.2.094.281.141q5.693,2.974,11.372,5.966a.516.516,0,0,0,.551,0q6.364-3.363,12.728-6.712c.114-.059.217-.116.37-.2l-.264-.136q-6.46-3.4-12.928-6.816a.445.445,0,0,0-.486.012L201.163-6.611c-.072.035-.148.072-.249.123-1.314-2.079-2.615-4.151-3.936-6.245,2.623-1.373,5.235-2.748,7.887-4.144-3.052-1.613-6.058-3.2-9.085-4.791,1.321-2.089,2.63-4.149,3.956-6.24,3.023,1.6,6.033,3.178,9.09,4.786v-8.334h.326c2.455-.007,4.9-.007,7.349-.025.24,0,.257.1.257.269q0,5.979,0,11.96a.459.459,0,0,0,.3.467q6.371,3.352,12.733,6.7c.1.052.2.1.351.168a2.91,2.91,0,0,0,.02-.3q0-6.782,0-13.567a.4.4,0,0,0-.252-.4q-5.66-2.974-11.313-5.971a3.194,3.194,0,0,1-.289-.156c1.316-2.079,2.63-4.144,3.956-6.235,2.623,1.385,5.223,2.753,7.873,4.151.012-.163.02-.269.02-.373v-8.865a.342.342,0,0,1,.351-.319h7.2c.341,0,.341,0,.341.326v9.27c2.682-1.413,5.3-2.793,7.944-4.191,1.321,2.084,2.635,4.151,3.961,6.24-.533.279-1.045.553-1.556.82-3.356,1.776-6.7,3.546-10.058,5.309a.469.469,0,0,0-.3.477q.011,6.7.007,13.4v.348c.121-.052.2-.081.279-.121q6.464-3.389,12.915-6.781a.426.426,0,0,0,.259-.432c-.007-3.909,0-7.828,0-11.745,0-.442,0-.442.482-.442,2.376,0,4.746,0,7.117.012h.324v8.292c3.05-1.605,6.05-3.188,9.07-4.783,1.321,2.089,2.635,4.156,3.956,6.245-3.028,1.6-6.04,3.183-9.112,4.8,2.679,1.408,5.3,2.788,7.944,4.173-1.321,2.089-2.623,4.161-3.944,6.25-.81-.425-1.6-.845-2.388-1.252q-4.638-2.445-9.288-4.887a.41.41,0,0,0-.459,0q-6.43,3.386-12.861,6.774c-.082.042-.158.086-.282.158.106.057.175.109.252.146q6.479,3.419,12.957,6.826a.406.406,0,0,0,.437-.01q5.69-3,11.372-5.974c.077-.044.161-.081.264-.138,1.316,2.089,2.618,4.161,3.939,6.25-2.627,1.373-5.228,2.741-7.9,4.139,3.057,1.613,6.055,3.188,9.088,4.791-1.314,2.082-2.623,4.149-3.949,6.245-3.023-1.6-6.038-3.178-9.1-4.8v.346q0,3.867,0,7.722c0,.022-.01.027-.012.047v.793h67.749A25.2,25.2,0,0,1,323.31,2.739a28.019,28.019,0,0,1,5.235-12.73C336.2-20.2,344.174-30.974,347.5-44.937c4.934,14.3,11.226,28.757,11.32,45.561a43.617,43.617,0,0,1-.533,6.974,27.875,27.875,0,0,1-5.662,13.1H398a6.007,6.007,0,0,0,6.03-5.983V-13.182A10.871,10.871,0,0,0,401.186-20.509ZM131.614.479a94.283,94.283,0,0,1-8.186,6.648c-4,2.961-7.529,6.146-9.848,10.905-1.83-3.373-.943-5.709.16-8.053,2.04-4.344,5.45-8.184,7.944-12.369,3.21-5.388,3.561-10.53-.521-15.772a77.386,77.386,0,0,1-5.87-8.853c-3.855-6.675-2.381-11.96,4.536-17.007.832-.61,1.531-1.467,3.351-1.309-1.19,5.285,2.576,9.253,6.295,13.234,1.262,1.351,2.5,2.714,3.855,4.01C143.852-18.03,142.331-9.473,131.614.479ZM104.462-56.968l25.49-11.419-6.174-13.98,18.2,15.982Zm181.134.3-5.779,10.028-31.051-39.4,19.5,39.4L242.272-58.1l-13.728,9.312-30.327,3.578,15.167-16.471,10.11-5.015L204.717-91.051l16.612-5.015-4.336-12.177,8.665-4.3,4.331-14.323,69.327,73.777Zm89.066,22.2-5.774-5.487-4.334,7.64-6.021-1.909,2.166-8.836h0L366-44.732H366L353-65.5l4.81,2.63h.007l27.436,30.317-13.718-8.112Z" transform="translate(-55.414 136)"/><path class="c" d="M177.338-92.628s8.952,23.314-6.485,45.833C170.853-46.8,193.965-66.943,177.338-92.628Z" transform="translate(114.218 199.733)"/></g></g></g></svg>