<svg xmlns="http://www.w3.org/2000/svg" width="48.631" height="59.753" viewBox="0 0 48.631 59.753"><defs><style>.a{fill:none;stroke:#fff;stroke-linecap:round;stroke-linejoin:round;stroke-width:2px;}</style></defs><g transform="translate(-3236.052 -280.387)"><path class="a" d="M1.951,0h42.73a1.951,1.951,0,0,1,1.951,1.951v55.8a0,0,0,0,1,0,0H0a0,0,0,0,1,0,0V1.951A1.951,1.951,0,0,1,1.951,0Z" transform="translate(3237.052 281.387)"/><line class="a" x2="46.631" transform="translate(3237.052 330.973)"/><line class="a" x2="46.631" transform="translate(3237.052 293.497)"/><rect class="a" width="32.007" height="19.067" transform="translate(3244.364 305.332)"/><line class="a" x2="32.007" transform="translate(3244.364 299.853)"/><line class="a" x2="3.314" transform="translate(3243.444 287.141)"/><line class="a" x2="3.314" transform="translate(3251.077 287.141)"/><line class="a" x2="3.314" transform="translate(3258.711 287.141)"/><line class="a" x2="3.314" transform="translate(3266.344 287.141)"/><line class="a" x2="3.314" transform="translate(3273.978 287.141)"/><line class="a" y1="2.722" x2="2.722" transform="translate(3248.186 309.098)"/><line class="a" y1="8.001" x2="8.001" transform="translate(3247.86 309.261)"/></g></svg>